<svg xmlns="http://www.w3.org/2000/svg" xmlns:xlink="http://www.w3.org/1999/xlink" width="500" zoomAndPan="magnify" viewBox="0 0 375 374.999991" height="500" preserveAspectRatio="xMidYMid meet" version="1.0"><defs><clipPath id="19313a41bf"><path d="M 134.511719 189 L 240.25 189 L 240.25 337.5 L 134.511719 337.5 Z M 134.511719 189 " clip-rule="nonzero"/></clipPath><clipPath id="3ea7eb8aab"><path d="M 174 37.5 L 190 37.5 L 190 68 L 174 68 Z M 174 37.5 " clip-rule="nonzero"/></clipPath></defs><g clip-path="url(#19313a41bf)"><path fill="#ffffff" d="M 225.351562 195.03125 C 225.351562 195.03125 178.203125 178.171875 156.773438 201.601562 C 135.34375 225.03125 167.917969 243.03125 145.34375 268.460938 C 122.773438 293.890625 139.917969 319.035156 156.488281 328.464844 C 173.0625 337.890625 205.917969 344.75 240.492188 323.605469 C 240.492188 323.605469 211.917969 339.320312 179.917969 332.464844 C 147.917969 325.605469 137.0625 300.75 143.347656 284.175781 C 149.628906 267.605469 167.0625 262.746094 158.773438 236.460938 C 150.488281 210.171875 157.917969 183.601562 225.351562 195.03125 " fill-opacity="1" fill-rule="nonzero"/></g><path fill="#ffffff" d="M 199.785156 263.132812 C 189.550781 263.132812 181.253906 254.835938 181.253906 244.605469 C 181.253906 234.371094 189.550781 226.074219 199.785156 226.074219 C 207.761719 226.074219 214.558594 231.113281 217.167969 238.183594 C 214.476562 230.046875 206.8125 224.175781 197.777344 224.175781 C 186.492188 224.175781 177.34375 233.320312 177.34375 244.605469 C 177.34375 255.886719 186.492188 265.03125 197.777344 265.03125 C 206.8125 265.03125 214.476562 259.160156 217.167969 251.027344 C 214.558594 258.09375 207.761719 263.132812 199.785156 263.132812 " fill-opacity="1" fill-rule="nonzero"/><path fill="#ffffff" d="M 214.585938 296.175781 L 180.300781 296.175781 L 180.300781 289.890625 L 214.585938 289.890625 L 214.585938 296.175781 " fill-opacity="1" fill-rule="nonzero"/><path fill="#ffffff" d="M 189.203125 293.890625 L 186.632812 293.890625 L 186.632812 95.027344 L 189.203125 95.027344 L 189.203125 293.890625 " fill-opacity="1" fill-rule="nonzero"/><path fill="#ffffff" d="M 195.492188 293.890625 L 192.917969 293.890625 L 192.917969 115.96875 L 195.492188 125.125 L 195.492188 293.890625 " fill-opacity="1" fill-rule="nonzero"/><path fill="#ffffff" d="M 201.679688 293.890625 L 199.109375 293.890625 L 199.109375 134.632812 L 201.679688 144.363281 L 201.679688 293.890625 " fill-opacity="1" fill-rule="nonzero"/><path fill="#ffffff" d="M 207.96875 293.890625 L 205.398438 293.890625 L 205.398438 152.167969 L 207.96875 161.28125 L 207.96875 293.890625 " fill-opacity="1" fill-rule="nonzero"/><path fill="#ffffff" d="M 189.167969 96.3125 C 189.167969 96.3125 190.347656 76.523438 174.777344 66.738281 L 174.777344 74.738281 C 174.777344 74.738281 186.238281 78.882812 186.667969 96.597656 L 189.167969 96.3125 " fill-opacity="1" fill-rule="nonzero"/><path fill="#ffffff" d="M 189.0625 82.738281 C 189.0625 82.738281 190.109375 61.308594 174.777344 52.453125 L 174.777344 60.453125 C 174.777344 60.453125 186.488281 65.023438 189.0625 82.738281 " fill-opacity="1" fill-rule="nonzero"/><g clip-path="url(#3ea7eb8aab)"><path fill="#ffffff" d="M 189.0625 67.789062 C 189.0625 67.789062 190.109375 46.359375 174.777344 37.5 L 174.777344 45.5 C 174.777344 45.5 186.488281 50.070312 189.0625 67.789062 " fill-opacity="1" fill-rule="nonzero"/></g></svg>